<!DOCTYPE svg PUBLIC "-//W3C//DTD SVG 20010904//EN" "http://www.w3.org/TR/2001/REC-SVG-20010904/DTD/svg10.dtd">
<svg version="1.0" xmlns="http://www.w3.org/2000/svg" width="512px" height="512px" viewBox="0 0 5120 5120" preserveAspectRatio="xMidYMid meet">
<g id="layer101" fill="#ffffff" stroke="none">
 <path d="M440 5089 c-191 -25 -364 -189 -405 -386 -22 -102 -22 -4184 0 -4286 41 -196 207 -354 405 -386 90 -15 4150 -15 4240 0 198 32 364 190 405 386 22 101 22 4174 1 4275 -20 94 -59 170 -122 238 -65 70 -126 110 -214 142 l-65 23 -2090 1 c-1149 1 -2119 -2 -2155 -7z m3755 -1100 c171 -32 274 -156 263 -318 -6 -83 -32 -135 -98 -194 -64 -58 -130 -80 -235 -81 -202 -1 -340 121 -339 299 0 86 25 146 84 205 81 81 197 113 325 89z m-1045 -1204 l0 -1165 200 0 200 0 0 -210 0 -210 -440 0 -440 0 0 690 0 690 -389 0 -390 0 -3 -487 c-4 -478 -4 -489 -27 -558 -63 -191 -210 -327 -411 -381 -88 -23 -272 -23 -359 0 -114 31 -190 74 -272 156 -136 135 -187 303 -148 492 15 73 80 203 130 261 44 51 164 147 183 147 6 -1 61 -65 121 -143 l110 -142 -42 -38 c-66 -61 -86 -111 -82 -211 4 -71 8 -88 32 -123 39 -56 81 -77 144 -71 63 6 109 38 134 92 17 38 19 75 19 522 l0 482 -152 3 c-167 4 -208 16 -236 70 -28 53 5 180 80 305 204 342 580 607 713 502 49 -39 58 -76 63 -275 l4 -183 389 0 389 0 0 475 0 475 240 0 240 0 0 -1165z"/>
 </g>

</svg>