<!DOCTYPE svg PUBLIC "-//W3C//DTD SVG 20010904//EN" "http://www.w3.org/TR/2001/REC-SVG-20010904/DTD/svg10.dtd">
<svg version="1.0" xmlns="http://www.w3.org/2000/svg" width="512px" height="512px" viewBox="0 0 5120 5120" preserveAspectRatio="xMidYMid meet">
<g id="layer101" fill="#289a58" stroke="none">
<path d="M440 5089 c-191 -25 -364 -189 -405 -386 -22 -102 -22 -4184 0 -4286 41 -196 207 -354 405 -386 90 -15 4150 -15 4240 0 198 32 364 190 405 386 22 101 22 4174 1 4275 -20 94 -59 170 -122 238 -65 70 -126 110 -214 142 l-65 23 -2090 1 c-1149 1 -2119 -2 -2155 -7z"/>
</g>
<g id="layer102" fill="#1eae95" stroke="none">
<path d="M2670 3475 l0 -475 -389 0 -389 0 -4 193 c-4 206 -11 240 -61 271 -118 73 -370 -64 -581 -317 -137 -164 -225 -332 -226 -430 0 -66 6 -66 -520 15 l-475 74 -3 -1151 c-2 -819 1 -1170 9 -1218 33 -203 205 -373 409 -406 90 -15 4150 -15 4240 0 147 23 287 124 358 257 61 115 62 118 62 964 l0 767 -32 6 c-18 3 -440 68 -938 145 -498 77 -920 142 -937 145 -28 5 -33 3 -33 -15 0 -11 6 -20 13 -20 8 0 9 -3 1 -8 -6 -4 -14 -14 -17 -22 -4 -8 -6 10 -6 40 1 30 1 416 0 858 l-1 802 -240 0 -240 0 0 -475z m-1300 -910 c0 -8 -4 -15 -10 -15 -5 0 -10 7 -10 15 0 8 5 15 10 15 6 0 10 -7 10 -15z m1299 -97 c-1 -62 -4 -103 -6 -92 -4 23 7 21 -558 108 l-210 32 -3 32 -3 32 390 0 391 0 -1 -112z"/>
</g>
<g id="layer103" fill="#ffffff" stroke="none">
<path d="M3991 3979 c-87 -28 -172 -110 -195 -189 -42 -142 8 -274 135 -353 89 -54 249 -61 350 -15 120 55 179 141 179 263 0 134 -51 220 -165 276 -87 43 -207 50 -304 18z"/>
<path d="M2670 3475 l0 -475 -389 0 -389 0 -4 193 c-3 159 -6 197 -21 224 -33 62 -93 81 -184 57 -270 -70 -662 -526 -663 -772 0 -99 50 -122 263 -122 l137 0 0 -477 c0 -442 -2 -481 -19 -518 -51 -113 -183 -138 -260 -50 -38 44 -55 104 -48 180 5 75 26 118 83 171 l43 40 -115 147 -115 147 -32 -17 c-17 -10 -70 -56 -118 -103 -69 -68 -94 -101 -124 -163 -165 -347 30 -721 415 -793 101 -19 255 -14 340 12 154 46 285 150 353 281 64 122 67 151 67 676 l0 467 390 0 390 0 0 -690 0 -690 440 0 440 0 0 210 0 210 -200 0 -200 0 0 1165 0 1165 -240 0 -240 0 0 -475z"/>
</g>


</svg>